<svg width="20" height="22" viewBox="0 0 33 26" fill="none" xmlns="http://www.w3.org/2000/svg">
<path fill-rule="evenodd" clip-rule="evenodd" d="M0 1.85714C0 0.83147 0.831482 0 1.85715 0H31.1429C32.1685 0 33 0.83147 33 1.85714C33 2.88282 32.1685 3.71429 31.1429 3.71429H1.85715C0.831482 3.71429 0 2.88282 0 1.85714ZM0 24.1429C0 23.1172 0.831482 22.2857 1.85715 22.2857H31.1429C32.1685 22.2857 33 23.1172 33 24.1429C33 25.1685 32.1685 26 31.1429 26H1.85715C0.831482 26 0 25.1685 0 24.1429ZM10.8571 11.1429C9.83148 11.1429 9 11.9743 9 13C9 14.0257 9.83148 14.8571 10.8571 14.8571H31.1429C32.1685 14.8571 33 14.0257 33 13C33 11.9743 32.1685 11.1429 31.1429 11.1429H10.8571Z" fill="url(#paint0_linear_232_39)"/>
<defs>
<linearGradient id="paint0_linear_232_39" x1="5.21062" y1="13" x2="33.0001" y2="13" gradientUnits="userSpaceOnUse">
<stop stop-color="#C0B7E8"/>
<stop offset="1" stop-color="#8176AF"/>
</linearGradient>
</defs>
</svg>
